# xmcd
#
# Track frame offsets:
#  150
#  18361
#  33775
#  56826
#  77351
#  99730
#  123291
#  144723
#  159340
#  174631
#  200903
#  220003
#  240137
#  256405
#  271078
#  289417
#  310285
#
# Disc length: 4406 seconds
#
# Revision: 0
# Processed by: cddbd v1.5.1PL2 Copyright (c) Steve Scherf et al.
# Submitted via: Collectorz.com_Music_Collector 6.11
#
DISCID=ea113411
DTITLE=10cc - Ten Out Of 10 +7 
DYEAR=1900
DGENRE=
TTITLE0=Don't Ask
TTITLE1=Overdraft In Overdrive
TTITLE2=Don't Turn Me Away
TTITLE3=Memories
TTITLE4=Notell Hotel
TTITLE5=Les Nouveaux Riches
TTITLE6=Action Man In A Motown Suit
TTITLE7=Listen With Your Eyes
TTITLE8=Lying Here With You
TTITLE9=	Survivor
TTITLE10=The Power Of Love
TTITLE11=Memories (Us Mix)
TTITLE12=We've Heard It All Before
TTITLE13=Tomorrow's World Today
TTITLE14=Runaway
TTITLE15=Les Nouveaux Riches (Single Mix)
TTITLE16=You're Coming Home Again
EXTD=
EXTT0=
EXTT1=
EXTT2=
EXTT3=
EXTT4=
EXTT5=
EXTT6=
EXTT7=
EXTT8=
EXTT9=
EXTT10=
EXTT11=
EXTT12=
EXTT13=
EXTT14=
EXTT15=
EXTT16=
PLAYORDER=
